<svg width="20" height="20" viewBox="0 0 20 20" fill="none" xmlns="http://www.w3.org/2000/svg">
<path fill-rule="evenodd" clip-rule="evenodd" d="M7.75 0.0126953V20L14 20C16.8284 20 18.2426 20 19.1213 19.1213C20 18.2426 20 16.8284 20 14V6C20 3.17157 20 1.75736 19.1213 0.87868C18.2426 0 16.8284 0 14 0H8L7.75 0.0126953ZM9.75 4.5C9.75 4.08579 10.0858 3.75 10.5 3.75H15.5C15.9142 3.75 16.25 4.08579 16.25 4.5C16.25 4.91421 15.9142 5.25 15.5 5.25H10.5C10.0858 5.25 9.75 4.91421 9.75 4.5ZM9.75 8C9.75 7.58579 10.0858 7.25 10.5 7.25H15.5C15.9142 7.25 16.25 7.58579 16.25 8C16.25 8.41421 15.9142 8.75 15.5 8.75H10.5C10.0858 8.75 9.75 8.41421 9.75 8ZM2.0007 5.25C2.00753 2.91427 2.08136 1.676 2.87868 0.87868C3.55366 0.203695 4.54467 0.0472205 6.25 0.0109466V19.9891C4.54467 19.9528 3.55366 19.7963 2.87868 19.1213C2.08136 18.324 2.00753 17.0857 2.0007 14.75H3C3.41421 14.75 3.75 14.4142 3.75 14C3.75 13.5858 3.41421 13.25 3 13.25H2V10.75H3C3.41421 10.75 3.75 10.4142 3.75 10C3.75 9.58579 3.41421 9.25 3 9.25H2V6.75H3C3.41421 6.75 3.75 6.41421 3.75 6C3.75 5.58579 3.41421 5.25 3 5.25H2.0007ZM2.0007 5.25H1C0.585786 5.25 0.25 5.58579 0.25 6C0.25 6.41421 0.585786 6.75 1 6.75H2V6C2 5.73811 2 5.48834 2.0007 5.25ZM2 10.75H1C0.585786 10.75 0.25 10.4142 0.25 10C0.25 9.58579 0.585786 9.25 1 9.25H2V10.75ZM2 13.25H1C0.585786 13.25 0.25 13.5858 0.25 14C0.25 14.4142 0.585786 14.75 1 14.75H2.0007C2 14.5117 2 14.2619 2 14V13.25Z" fill="#A50304"/>
</svg>
