<svg width="20" height="18" viewBox="0 0 20 18" fill="none" xmlns="http://www.w3.org/2000/svg">
<path fill-rule="evenodd" clip-rule="evenodd" d="M6.96173 16.3707C4.01943 13.9714 0 10.0079 0 6.26044C0 0.349496 5.50016 -2.33736 10 2.49877C14.4998 -2.33736 20 0.349311 20 6.2604C20 10.008 15.9806 13.9714 13.0383 16.3707C11.7063 17.4569 11.0403 18 10 18C8.95972 18 8.29372 17.4569 6.96173 16.3707ZM8.09317 7.74629C8.18271 7.61837 8.25707 7.51222 8.32326 7.4213C8.37929 7.51882 8.44178 7.63236 8.51703 7.76917L10.2273 10.8787C10.3933 11.1808 10.5562 11.4771 10.7197 11.6921C10.8947 11.9221 11.2023 12.2374 11.6954 12.2466C12.1884 12.2559 12.5077 11.9524 12.6912 11.7291C12.8627 11.5204 13.0365 11.2305 13.2138 10.9349L13.2692 10.8425C13.49 10.4745 13.629 10.2444 13.752 10.0782C13.8654 9.9251 13.9309 9.87513 13.9798 9.84746C14.0286 9.81979 14.1052 9.78936 14.2948 9.77093C14.5006 9.75093 14.7694 9.75011 15.1986 9.75011H16C16.4142 9.75011 16.75 9.41433 16.75 9.00011C16.75 8.5859 16.4142 8.25011 16 8.25011L15.1662 8.25011C14.7791 8.25009 14.4367 8.25007 14.1497 8.27797C13.8385 8.30821 13.5357 8.37513 13.2407 8.54216C12.9457 8.7092 12.7325 8.93443 12.5465 9.18569C12.3749 9.41744 12.1988 9.71103 11.9996 10.043L11.9521 10.1222C11.8654 10.2668 11.793 10.3872 11.7284 10.4906C11.6676 10.3849 11.5999 10.2618 11.5186 10.1141L9.80919 7.00599C9.65508 6.7256 9.50154 6.44626 9.34579 6.24147C9.17563 6.01775 8.8839 5.72194 8.41638 5.6967C7.94887 5.67146 7.62698 5.93414 7.43373 6.13823C7.25683 6.32506 7.0741 6.58625 6.89069 6.84841L6.58131 7.2904C6.35416 7.6149 6.21175 7.81709 6.08848 7.96291C5.975 8.09714 5.91193 8.14111 5.86538 8.16535C5.81882 8.18959 5.74663 8.21604 5.57159 8.23203C5.38144 8.24939 5.13413 8.25011 4.73803 8.25011H4C3.58579 8.25011 3.25 8.5859 3.25 9.00011C3.25 9.41433 3.58579 9.75011 4 9.75011L4.76812 9.75011C5.12509 9.75013 5.44153 9.75015 5.70801 9.72581C5.99707 9.69942 6.27904 9.64111 6.55809 9.49581C6.83714 9.35052 7.04661 9.15297 7.234 8.9313C7.40676 8.72694 7.58821 8.4677 7.79291 8.17524L8.09317 7.74629Z" fill="#A50304"/>
</svg>
